<svg width="22" height="22" viewBox="0 0 22 22" fill="currentColor" xmlns="http://www.w3.org/2000/svg">
<path d="M11 1.375H5.67188C5.07928 1.375 4.51096 1.59023 4.09193 1.97334C3.67291 2.35645 3.4375 2.87606 3.4375 3.41786V16.9321C3.4375 17.4739 3.67291 17.9936 4.09193 18.3767C4.51096 18.7598 5.07928 18.975 5.67188 18.975H16.3281C16.9207 18.975 17.489 18.7598 17.9081 18.3767C18.3271 17.9936 18.5625 17.4739 18.5625 16.9321V8.28929H13.2344C12.6418 8.28929 12.0735 8.07406 11.6544 7.69095C11.2354 7.30784 11 6.78823 11 6.24643V1.375ZM18.4683 7.03214C18.3622 6.70792 18.1697 6.41287 17.908 6.17351L13.3141 1.9734C13.0524 1.73392 12.7297 1.55767 12.375 1.46049V6.24643C12.375 6.68014 12.76 7.03214 13.2344 7.03214H18.4683Z" fill="#8F60FF"/>
</svg>
