<svg width="20" height="20" viewBox="0 0 20 20" fill="currentColor" xmlns="http://www.w3.org/2000/svg">
<path d="M9.91567 9.98255L12.2904 8.3685C12.5105 8.21772 12.6205 8.00868 12.6205 7.74138C12.6205 7.47409 12.5105 7.26505 12.2904 7.11427L9.91567 5.50022C9.66446 5.31766 9.40548 5.30209 9.13872 5.45349C8.87197 5.60427 8.73859 5.83076 8.73859 6.13294V9.34982C8.73859 9.65201 8.87197 9.87849 9.13872 10.0293C9.40548 10.1807 9.66446 10.1651 9.91567 9.98255ZM2.84476 18.3192C2.42691 18.3727 2.05382 18.2727 1.72551 18.0191C1.39719 17.7656 1.20816 17.4297 1.15841 17.0116L0.0121083 7.93391C-0.0376365 7.51521 0.0658948 7.13639 0.322702 6.79744C0.57951 6.45849 0.916531 6.2697 1.33377 6.23107L2.24503 6.16285V12.7377C2.24503 13.6698 2.57459 14.4661 3.23371 15.1266C3.89282 15.787 4.6875 16.1172 5.61772 16.1172H14.1847C14.1866 16.3353 14.1104 16.5266 13.9562 16.6911C13.802 16.8556 13.6123 16.9553 13.3872 16.9902L2.84476 18.3192ZM5.61772 14.248C5.18868 14.248 4.8302 14.1038 4.5423 13.8153C4.25441 13.5268 4.11077 13.1677 4.11139 12.7377V3.17681C4.11139 2.74627 4.25503 2.38708 4.5423 2.09922C4.82958 1.81137 5.18805 1.66713 5.61772 1.6665H15.1594C15.5891 1.6665 15.9475 1.81074 16.2348 2.09922C16.5221 2.3877 16.666 2.7469 16.6667 3.17681V12.7377C16.6667 13.1677 16.5227 13.5268 16.2348 13.8153C15.9469 14.1038 15.5884 14.248 15.1594 14.248H5.61772Z" fill="#FF7BAC"/>
</svg>
