<svg width="20" height="20" viewBox="0 0 20 20" fill="currentColor" xmlns="http://www.w3.org/2000/svg">
<path d="M5.62484 8.95817C7.46579 8.95817 8.95817 7.46579 8.95817 5.62484C8.95817 3.78389 7.46579 2.2915 5.62484 2.2915C3.78389 2.2915 2.2915 3.78389 2.2915 5.62484C2.2915 7.46579 3.78389 8.95817 5.62484 8.95817Z" fill="#4E65FB" stroke="#4E65FB" stroke-width="0.5" stroke-linecap="round" stroke-linejoin="round"/>
<path d="M14.3748 17.7082C16.2158 17.7082 17.7082 16.2158 17.7082 14.3748C17.7082 12.5339 16.2158 11.0415 14.3748 11.0415C12.5339 11.0415 11.0415 12.5339 11.0415 14.3748C11.0415 16.2158 12.5339 17.7082 14.3748 17.7082Z" fill="#4E65FB" stroke="#4E65FB" stroke-width="0.5" stroke-linecap="round" stroke-linejoin="round"/>
<path d="M14.3748 8.95817C16.2158 8.95817 17.7082 7.46579 17.7082 5.62484C17.7082 3.78389 16.2158 2.2915 14.3748 2.2915C12.5339 2.2915 11.0415 3.78389 11.0415 5.62484C11.0415 7.46579 12.5339 8.95817 14.3748 8.95817Z" fill="#4E65FB" stroke="#4E65FB" stroke-width="0.5" stroke-linecap="round" stroke-linejoin="round"/>
<path d="M5.62484 17.7082C7.46579 17.7082 8.95817 16.2158 8.95817 14.3748C8.95817 12.5339 7.46579 11.0415 5.62484 11.0415C3.78389 11.0415 2.2915 12.5339 2.2915 14.3748C2.2915 16.2158 3.78389 17.7082 5.62484 17.7082Z" fill="#4E65FB" stroke="#4E65FB" stroke-width="0.5" stroke-linecap="round" stroke-linejoin="round"/>
</svg>
