<svg width="25" height="25" viewBox="0 0 25 25" fill="none" xmlns="http://www.w3.org/2000/svg">
<path d="M12.5 1.5625H6.44531C5.77191 1.5625 5.12609 1.80708 4.64992 2.24243C4.17376 2.67778 3.90625 3.26825 3.90625 3.88393V19.2411C3.90625 19.8568 4.17376 20.4472 4.64992 20.8826C5.12609 21.3179 5.77191 21.5625 6.44531 21.5625H18.5547C19.2281 21.5625 19.8739 21.3179 20.3501 20.8826C20.8262 20.4472 21.0938 19.8568 21.0938 19.2411V9.41964H15.0391C14.3657 9.41964 13.7198 9.17506 13.2437 8.73971C12.7675 8.30436 12.5 7.7139 12.5 7.09821V1.5625ZM20.9867 7.99107C20.8662 7.62263 20.6474 7.28735 20.35 7.01536L15.1297 2.2425C14.8323 1.97037 14.4656 1.77008 14.0625 1.65964V7.09821C14.0625 7.59107 14.5 7.99107 15.0391 7.99107H20.9867Z" fill="#F2F5F9"/>
</svg>
