<svg width="130" height="131" viewBox="0 0 130 131" fill="none" xmlns="http://www.w3.org/2000/svg">
<path d="M21.4278 79.4904C18.6424 78.9244 16.4717 77.4931 14.9158 75.1965C13.3598 72.8999 12.8797 70.4188 13.4757 67.7531L26.5353 9.67902C27.1339 7.01729 28.6387 4.9412 31.0499 3.45075C33.461 1.96029 36.0579 1.49612 38.8407 2.05822L69.2271 8.23286L77.1793 19.9701L117.694 28.203C120.48 28.769 122.652 30.2022 124.21 32.5027C125.769 34.8032 126.248 37.2824 125.647 39.9402L114.764 88.3353C114.165 90.997 112.661 93.0751 110.253 94.5694C107.845 96.0638 105.246 96.526 102.458 95.9561L21.4278 79.4904Z" fill="#DD5B9B" fill-opacity="0.6"/>
<path d="M20.7151 109.954C17.8667 109.954 15.4292 108.94 13.4026 106.914C11.3759 104.887 10.3609 102.448 10.3574 99.5962V37.4504C10.3574 34.6021 11.3725 32.1646 13.4026 30.1379C15.4327 28.1113 17.8702 27.0962 20.7151 27.0928H51.7879L62.1456 37.4504H103.576C106.424 37.4504 108.864 38.4655 110.894 40.4955C112.924 42.5256 113.937 44.9631 113.934 47.808V99.5962C113.934 102.445 112.92 104.884 110.894 106.914C108.867 108.944 106.428 109.957 103.576 109.954H20.7151Z" fill="url(#paint0_linear_1752_21)"/>
<path fill-rule="evenodd" clip-rule="evenodd" d="M62.146 52.144C59.9663 52.1436 57.833 52.7736 56.0033 53.9581C54.1735 55.1426 52.7254 56.8311 51.8336 58.82C51.7067 59.1051 51.5768 59.3889 51.4438 59.6712L51.4061 59.6731C51.2856 59.6769 51.1217 59.6769 50.8468 59.6769C48.849 59.6769 46.933 60.4705 45.5203 61.8832C44.1076 63.2959 43.314 65.2119 43.314 67.2097C43.314 69.2075 44.1076 71.1235 45.5203 72.5362C46.933 73.9489 48.849 74.7425 50.8468 74.7425H51.1707L54.9371 70.9761H50.8468C49.8479 70.9761 48.8899 70.5793 48.1835 69.8729C47.4772 69.1666 47.0804 68.2086 47.0804 67.2097C47.0804 66.2108 47.4772 65.2528 48.1835 64.5464C48.8899 63.8401 49.8479 63.4433 50.8468 63.4433H50.9673C51.359 63.4433 51.8148 63.4452 52.1914 63.3679C52.6602 63.2878 53.1084 63.1149 53.5096 62.8595C53.9635 62.5657 54.2761 62.2004 54.5134 61.867C54.6588 61.6523 54.7854 61.4255 54.8919 61.1891C54.9923 60.9794 55.1154 60.7107 55.261 60.3831L55.2686 60.3642C55.8626 59.0369 56.828 57.9098 58.0483 57.1189C59.2687 56.328 60.6918 55.9072 62.146 55.9072C63.6002 55.9072 65.0234 56.328 66.2437 57.1189C67.4641 57.9098 68.4295 59.0369 69.0235 60.3642L69.0329 60.3831C69.1773 60.7095 69.2997 60.9782 69.4001 61.1891C69.4868 61.3718 69.6148 61.6373 69.7786 61.867C70.0159 62.1985 70.3267 62.5657 70.7824 62.8614C71.2381 63.1551 71.6995 63.2889 72.1006 63.3698C72.4773 63.4452 72.933 63.4452 73.3247 63.4452L73.4453 63.4433C74.4442 63.4433 75.4022 63.8401 76.1085 64.5464C76.8148 65.2528 77.2117 66.2108 77.2117 67.2097C77.2117 68.2086 76.8148 69.1666 76.1085 69.8729C75.4022 70.5793 74.4442 70.9761 73.4453 70.9761H69.3549L73.1213 74.7425H73.4453C75.4431 74.7425 77.3591 73.9489 78.7718 72.5362C80.1844 71.1235 80.9781 69.2075 80.9781 67.2097C80.9781 65.2119 80.1844 63.2959 78.7718 61.8832C77.3591 60.4705 75.4431 59.6769 73.4453 59.6769C73.1703 59.6769 73.0065 59.6769 72.8859 59.6731H72.8483L72.8012 59.5733C72.6847 59.3232 72.5704 59.0721 72.4585 58.82C71.5666 56.8311 70.1185 55.1426 68.2888 53.9581C66.459 52.7736 64.3257 52.1436 62.146 52.144Z" fill="#E0C2FD"/>
<path d="M62.146 70.9758L60.8146 69.6444L62.146 68.313L63.4774 69.6444L62.146 70.9758ZM64.0292 87.9247C64.0292 88.4241 63.8308 88.9031 63.4776 89.2563C63.1244 89.6095 62.6454 89.8079 62.146 89.8079C61.6465 89.8079 61.1675 89.6095 60.8144 89.2563C60.4612 88.9031 60.2628 88.4241 60.2628 87.9247H64.0292ZM53.2817 77.1772L60.8146 69.6444L63.4774 72.3073L55.9446 79.8401L53.2817 77.1772ZM63.4774 69.6444L71.0102 77.1772L68.3474 79.8401L60.8146 72.3073L63.4774 69.6444ZM64.0292 70.9758V87.9247H60.2628V70.9758H64.0292Z" fill="#E0C2FD"/>
<defs>
<linearGradient id="paint0_linear_1752_21" x1="62.1456" y1="27.0928" x2="62.1456" y2="109.954" gradientUnits="userSpaceOnUse">
<stop stop-color="#A855F7"/>
<stop offset="1" stop-color="#EC4899"/>
</linearGradient>
</defs>
</svg>
