<svg width="72" height="75" viewBox="0 0 72 75" fill="none" xmlns="http://www.w3.org/2000/svg">
<g clip-path="url(#clip0_1428_17)">
<g clip-path="url(#clip1_1428_17)">
<path d="M12.4999 51.6897C11.1517 51.3194 10.1297 50.5231 9.43407 49.301C8.73841 48.0788 8.57525 46.793 8.94458 45.4435L17.0286 16.0456C17.3992 14.6982 18.1967 13.6771 19.4212 12.9824C20.6458 12.2876 21.9316 12.1243 23.2786 12.4925L37.9866 16.5321L41.5419 22.7782L61.1526 28.1643C62.5008 28.5346 63.5233 29.3318 64.2202 30.5561C64.917 31.7803 65.0796 33.0651 64.7079 34.4104L57.9712 58.9086C57.6006 60.256 56.8037 61.2782 55.5803 61.975C54.357 62.6719 53.0706 62.8341 51.7212 62.4618L12.4999 51.6897Z" fill="#4E65FB"/>
</g>
<path d="M11.4195 57.8063C10.0334 57.6223 8.91284 56.972 8.05769 55.8555C7.20254 54.7389 6.86632 53.4871 7.04903 52.1L11.0671 21.8779C11.2513 20.4927 11.9028 19.3729 13.0217 18.5185C14.1406 17.6641 15.3924 17.3279 16.7769 17.5101L31.8973 19.5179L36.2678 25.2242L56.4283 27.9013C57.8143 28.0854 58.9357 28.7366 59.7923 29.855C60.6489 30.9735 60.9844 32.2243 60.7987 33.6076L57.4503 58.7928C57.2662 60.178 56.6154 61.2987 55.4979 62.155C54.3805 63.0113 53.128 63.3465 51.7405 63.1605L11.4195 57.8063Z" fill="#019BA0"/>
<path d="M11.9995 64.8374C10.6012 64.8374 9.40471 64.3403 8.40986 63.3461C7.41501 62.3518 6.91673 61.1552 6.91504 59.7561V29.2683C6.91504 27.871 7.41331 26.6752 8.40986 25.6809C9.40641 24.6867 10.6029 24.1887 11.9995 24.187H27.2527L32.3372 29.2683H52.6749C54.0731 29.2683 55.2705 29.7663 56.267 30.7622C57.2636 31.7581 57.761 32.9539 57.7593 34.3496V59.7561C57.7593 61.1535 57.2619 62.3501 56.267 63.3461C55.2722 64.342 54.0748 64.8391 52.6749 64.8374H11.9995Z" fill="#8F60FF"/>
<path d="M41.2096 47.2562C41.2096 52.3202 37.1016 56.4269 32.0323 56.4269C26.9629 56.4269 22.855 52.3202 22.855 47.2562C22.855 42.1922 26.9629 38.0854 32.0323 38.0854C37.1016 38.0854 41.2096 42.1922 41.2096 47.2562Z" stroke="white" stroke-width="3"/>
<circle cx="32" cy="47" r="3.5" fill="white" stroke="white"/>
</g>
<defs>
<clipPath id="clip0_1428_17">
<rect width="72" height="75" rx="15" fill="white"/>
</clipPath>
<clipPath id="clip1_1428_17">
<rect width="61.0105" height="60.9782" fill="white" transform="matrix(0.964292 0.264843 -0.265145 0.964208 16.168 0)"/>
</clipPath>
</defs>
</svg>
