<svg width="24" height="24" viewBox="0 0 24 24" fill="none" xmlns="http://www.w3.org/2000/svg">
<path d="M11.8988 11.9792L14.7484 10.0424C15.0126 9.86145 15.1447 9.61061 15.1447 9.28985C15.1447 8.9691 15.0126 8.71826 14.7484 8.53732L11.8988 6.60046C11.5974 6.38139 11.2866 6.3627 10.9665 6.54438C10.6464 6.72532 10.4863 6.9971 10.4863 7.35973V11.22C10.4863 11.5826 10.6464 11.8544 10.9665 12.0353C11.2866 12.217 11.5974 12.1983 11.8988 11.9792ZM3.41372 21.9832C2.91229 22.0475 2.46459 21.9275 2.07061 21.6232C1.67663 21.3189 1.44979 20.9159 1.3901 20.4142L0.0145299 9.52089C-0.0451638 9.01845 0.0790737 8.56386 0.387243 8.15712C0.695412 7.75039 1.09984 7.52384 1.60052 7.47748L2.69403 7.39561V15.2855C2.69403 16.404 3.0895 17.3595 3.88045 18.1521C4.67139 18.9446 5.625 19.3409 6.74127 19.3409H17.0217C17.0239 19.6026 16.9325 19.8321 16.7474 20.0295C16.5624 20.2269 16.3348 20.3465 16.0647 20.3884L3.41372 21.9832ZM6.74127 17.0978C6.22641 17.0978 5.79624 16.9248 5.45077 16.5786C5.10529 16.2324 4.93292 15.8014 4.93367 15.2855V3.81237C4.93367 3.29573 5.10603 2.86469 5.45077 2.51926C5.7955 2.17384 6.22567 2.00075 6.74127 2H18.1913C18.7069 2 19.1371 2.17309 19.4818 2.51926C19.8265 2.86544 19.9993 3.29647 20 3.81237V15.2855C20 15.8014 19.8273 16.2324 19.4818 16.5786C19.1363 16.9248 18.7061 17.0978 18.1913 17.0978H6.74127Z" fill="#F2F5F9"/>
</svg>
