<svg width="22" height="22" viewBox="0 0 22 22" fill="none" xmlns="http://www.w3.org/2000/svg">
<path d="M6.18766 9.85433C8.21271 9.85433 9.85433 8.21271 9.85433 6.18766C9.85433 4.16262 8.21271 2.521 6.18766 2.521C4.16262 2.521 2.521 4.16262 2.521 6.18766C2.521 8.21271 4.16262 9.85433 6.18766 9.85433Z" fill="#F2F5F9" stroke="#F2F5F9" stroke-width="0.5" stroke-linecap="round" stroke-linejoin="round"/>
<path d="M15.8127 19.4793C17.8377 19.4793 19.4793 17.8377 19.4793 15.8127C19.4793 13.7876 17.8377 12.146 15.8127 12.146C13.7876 12.146 12.146 13.7876 12.146 15.8127C12.146 17.8377 13.7876 19.4793 15.8127 19.4793Z" fill="#F2F5F9" stroke="#F2F5F9" stroke-width="0.5" stroke-linecap="round" stroke-linejoin="round"/>
<path d="M15.8127 9.85433C17.8377 9.85433 19.4793 8.21271 19.4793 6.18766C19.4793 4.16262 17.8377 2.521 15.8127 2.521C13.7876 2.521 12.146 4.16262 12.146 6.18766C12.146 8.21271 13.7876 9.85433 15.8127 9.85433Z" fill="#F2F5F9" stroke="#F2F5F9" stroke-width="0.5" stroke-linecap="round" stroke-linejoin="round"/>
<path d="M6.18766 19.4793C8.21271 19.4793 9.85433 17.8377 9.85433 15.8127C9.85433 13.7876 8.21271 12.146 6.18766 12.146C4.16262 12.146 2.521 13.7876 2.521 15.8127C2.521 17.8377 4.16262 19.4793 6.18766 19.4793Z" fill="#F2F5F9" stroke="#F2F5F9" stroke-width="0.5" stroke-linecap="round" stroke-linejoin="round"/>
</svg>
