<svg width="50" height="50" viewBox="0 0 50 50" fill="none" xmlns="http://www.w3.org/2000/svg">
<rect width="50" height="50" rx="5" fill="#290A73"/>
<path d="M9.82955 32H4.99077V18.9091H9.82315C11.157 18.9091 12.3054 19.1712 13.2685 19.6953C14.2358 20.2152 14.9815 20.9652 15.5057 21.9453C16.0298 22.9212 16.2919 24.0888 16.2919 25.4482C16.2919 26.8118 16.0298 27.9837 15.5057 28.9638C14.9858 29.9439 14.2422 30.696 13.2749 31.2202C12.3075 31.7401 11.1591 32 9.82955 32ZM8.15483 29.3026H9.7081C10.4411 29.3026 11.0611 29.179 11.5682 28.9318C12.0795 28.6804 12.4652 28.2734 12.7251 27.7109C12.9893 27.1442 13.1214 26.3899 13.1214 25.4482C13.1214 24.5064 12.9893 23.7564 12.7251 23.1982C12.4609 22.6357 12.071 22.2308 11.5554 21.9837C11.044 21.7322 10.4134 21.6065 9.66335 21.6065H8.15483V29.3026ZM30.495 25.4545C30.495 26.8949 30.218 28.1158 29.6641 29.1172C29.1101 30.1186 28.3601 30.8793 27.4141 31.3991C26.4723 31.919 25.4155 32.179 24.2436 32.179C23.0675 32.179 22.0085 31.9169 21.0668 31.3928C20.125 30.8686 19.3771 30.108 18.8232 29.1108C18.2734 28.1094 17.9986 26.8906 17.9986 25.4545C17.9986 24.0142 18.2734 22.7933 18.8232 21.7919C19.3771 20.7905 20.125 20.0298 21.0668 19.5099C22.0085 18.9901 23.0675 18.7301 24.2436 18.7301C25.4155 18.7301 26.4723 18.9901 27.4141 19.5099C28.3601 20.0298 29.1101 20.7905 29.6641 21.7919C30.218 22.7933 30.495 24.0142 30.495 25.4545ZM27.2607 25.4545C27.2607 24.6023 27.1392 23.8821 26.8963 23.294C26.6577 22.706 26.3125 22.2607 25.8608 21.9581C25.4134 21.6555 24.8743 21.5043 24.2436 21.5043C23.6172 21.5043 23.0781 21.6555 22.6264 21.9581C22.1747 22.2607 21.8274 22.706 21.5845 23.294C21.3459 23.8821 21.2266 24.6023 21.2266 25.4545C21.2266 26.3068 21.3459 27.027 21.5845 27.6151C21.8274 28.2031 22.1747 28.6484 22.6264 28.951C23.0781 29.2536 23.6172 29.4048 24.2436 29.4048C24.8743 29.4048 25.4134 29.2536 25.8608 28.951C26.3125 28.6484 26.6577 28.2031 26.8963 27.6151C27.1392 27.027 27.2607 26.3068 27.2607 25.4545ZM44.2251 23.652H41.0291C40.9865 23.3239 40.8991 23.0277 40.767 22.7635C40.6349 22.4993 40.4602 22.2734 40.2429 22.0859C40.0256 21.8984 39.7678 21.7557 39.4695 21.6577C39.1754 21.5554 38.8494 21.5043 38.4915 21.5043C37.8565 21.5043 37.3089 21.6598 36.8487 21.9709C36.3928 22.282 36.0412 22.7315 35.794 23.3196C35.5511 23.9077 35.4297 24.6193 35.4297 25.4545C35.4297 26.3239 35.5533 27.0526 35.8004 27.6406C36.0518 28.2244 36.4034 28.6655 36.8551 28.9638C37.3111 29.2578 37.8501 29.4048 38.4723 29.4048C38.8217 29.4048 39.1392 29.3601 39.4247 29.2706C39.7145 29.1811 39.968 29.0511 40.1854 28.8807C40.407 28.706 40.5881 28.495 40.7287 28.2479C40.8736 27.9964 40.9737 27.7131 41.0291 27.3977L44.2251 27.4169C44.1697 27.9964 44.0014 28.5675 43.7202 29.13C43.4432 29.6925 43.0618 30.206 42.576 30.6705C42.0902 31.1307 41.4979 31.4972 40.799 31.7699C40.1044 32.0426 39.3075 32.179 38.4084 32.179C37.2237 32.179 36.1626 31.919 35.2251 31.3991C34.2919 30.875 33.5547 30.1122 33.0135 29.1108C32.4723 28.1094 32.2017 26.8906 32.2017 25.4545C32.2017 24.0142 32.4766 22.7933 33.0263 21.7919C33.576 20.7905 34.3196 20.0298 35.2571 19.5099C36.1946 18.9901 37.245 18.7301 38.4084 18.7301C39.201 18.7301 39.9339 18.8409 40.6072 19.0625C41.2805 19.2798 41.8729 19.5994 42.3842 20.0213C42.8956 20.4389 43.3111 20.9524 43.6307 21.5618C43.9503 22.1712 44.1484 22.8679 44.2251 23.652Z" fill="white"/>
</svg>
