<svg width="50" height="50" viewBox="0 0 50 50" fill="none" xmlns="http://www.w3.org/2000/svg">
<rect width="50" height="50" rx="5" fill="#288DFF"/>
<path d="M9.21023 30H5.71555V20.5455H9.20561C10.1689 20.5455 10.9983 20.7347 11.6939 21.1133C12.3925 21.4888 12.9311 22.0304 13.3097 22.7383C13.6882 23.4431 13.8775 24.2863 13.8775 25.2681C13.8775 26.253 13.6882 27.0993 13.3097 27.8072C12.9342 28.515 12.3971 29.0582 11.6985 29.4368C10.9999 29.8123 10.1705 30 9.21023 30ZM8.00071 28.0518H9.12251C9.65187 28.0518 10.0997 27.9626 10.4659 27.7841C10.8352 27.6025 11.1138 27.3086 11.3015 26.9023C11.4923 26.493 11.5877 25.9483 11.5877 25.2681C11.5877 24.5879 11.4923 24.0463 11.3015 23.6431C11.1107 23.2369 10.8291 22.9445 10.4567 22.766C10.0874 22.5844 9.63187 22.4936 9.0902 22.4936H8.00071V28.0518ZM24.1353 25.2727C24.1353 26.313 23.9353 27.1947 23.5352 27.918C23.1351 28.6412 22.5934 29.1906 21.9102 29.5661C21.23 29.9415 20.4667 30.1293 19.6204 30.1293C18.771 30.1293 18.0062 29.94 17.326 29.5614C16.6458 29.1829 16.1057 28.6335 15.7056 27.9134C15.3086 27.1901 15.1101 26.3099 15.1101 25.2727C15.1101 24.2325 15.3086 23.3507 15.7056 22.6275C16.1057 21.9042 16.6458 21.3549 17.326 20.9794C18.0062 20.6039 18.771 20.4162 19.6204 20.4162C20.4667 20.4162 21.23 20.6039 21.9102 20.9794C22.5934 21.3549 23.1351 21.9042 23.5352 22.6275C23.9353 23.3507 24.1353 24.2325 24.1353 25.2727ZM21.7994 25.2727C21.7994 24.6572 21.7116 24.1371 21.5362 23.7124C21.3639 23.2876 21.1146 22.966 20.7884 22.7475C20.4652 22.529 20.0759 22.4197 19.6204 22.4197C19.168 22.4197 18.7786 22.529 18.4524 22.7475C18.1262 22.966 17.8754 23.2876 17.6999 23.7124C17.5276 24.1371 17.4414 24.6572 17.4414 25.2727C17.4414 25.8883 17.5276 26.4084 17.6999 26.8331C17.8754 27.2578 18.1262 27.5794 18.4524 27.7979C18.7786 28.0165 19.168 28.1257 19.6204 28.1257C20.0759 28.1257 20.4652 28.0165 20.7884 27.7979C21.1146 27.5794 21.3639 27.2578 21.5362 26.8331C21.7116 26.4084 21.7994 25.8883 21.7994 25.2727ZM34.0515 23.9709H31.7433C31.7125 23.7339 31.6494 23.52 31.554 23.3292C31.4586 23.1384 31.3324 22.9753 31.1754 22.8398C31.0185 22.7044 30.8323 22.6013 30.6168 22.5305C30.4045 22.4567 30.169 22.4197 29.9105 22.4197C29.4519 22.4197 29.0565 22.5321 28.7241 22.7567C28.3948 22.9814 28.1409 23.3061 27.9624 23.7308C27.7869 24.1555 27.6992 24.6695 27.6992 25.2727C27.6992 25.9006 27.7885 26.4268 27.967 26.8516C28.1486 27.2732 28.4025 27.5917 28.7287 27.8072C29.058 28.0195 29.4473 28.1257 29.8967 28.1257C30.149 28.1257 30.3783 28.0934 30.5845 28.0288C30.7938 27.9641 30.9769 27.8703 31.1339 27.7472C31.2939 27.621 31.4247 27.4686 31.5263 27.2901C31.6309 27.1085 31.7032 26.9039 31.7433 26.6761L34.0515 26.69C34.0115 27.1085 33.8899 27.521 33.6868 27.9272C33.4867 28.3335 33.2113 28.7043 32.8604 29.0398C32.5096 29.3722 32.0818 29.6368 31.5771 29.8338C31.0754 30.0308 30.4999 30.1293 29.8505 30.1293C28.9949 30.1293 28.2286 29.9415 27.5515 29.5661C26.8775 29.1875 26.3451 28.6366 25.9542 27.9134C25.5633 27.1901 25.3679 26.3099 25.3679 25.2727C25.3679 24.2325 25.5664 23.3507 25.9634 22.6275C26.3604 21.9042 26.8975 21.3549 27.5746 20.9794C28.2517 20.6039 29.0103 20.4162 29.8505 20.4162C30.4229 20.4162 30.9523 20.4962 31.4386 20.6562C31.9248 20.8132 32.3526 21.044 32.7219 21.3487C33.0913 21.6503 33.3913 22.0212 33.6222 22.4613C33.853 22.9014 33.9961 23.4046 34.0515 23.9709ZM37.4181 20.5455L39.1446 23.5323H39.2185L40.9635 20.5455H43.521L40.6681 25.2727L43.6134 30H40.9912L39.2185 26.9808H39.1446L37.3719 30H34.7682L37.6997 25.2727L34.8421 20.5455H37.4181Z" fill="white"/>
</svg>
