<svg width="50" height="50" viewBox="0 0 50 50" fill="none" xmlns="http://www.w3.org/2000/svg">
<g clip-path="url(#clip0_1527_36)">
<path d="M5.55555 50C4.02778 50 2.72037 49.4565 1.63333 48.3694C0.546296 47.2824 0.00185185 45.9741 0 44.4444V5.55555C0 4.02778 0.544445 2.72037 1.63333 1.63333C2.72222 0.546296 4.02963 0.00185185 5.55555 0H44.4444C45.9722 0 47.2806 0.544445 48.3694 1.63333C49.4583 2.72222 50.0018 4.02963 50 5.55555V44.4444C50 45.9722 49.4565 47.2806 48.3694 48.3694C47.2824 49.4583 45.9741 50.0018 44.4444 50H5.55555ZM8.33333 38.8889H41.6667L31.25 25L22.9167 36.1111L16.6667 27.7778L8.33333 38.8889Z" fill="#E69500"/>
</g>
<defs>
<clipPath id="clip0_1527_36">
<rect width="50" height="50" fill="white"/>
</clipPath>
</defs>
</svg>
