<svg width="50" height="50" viewBox="0 0 50 50" fill="none" xmlns="http://www.w3.org/2000/svg">
<rect width="50" height="50" rx="5" fill="#FFF0F0"/>
<path d="M41.9997 6.49904C41.9995 6.26537 41.9432 6.03496 41.8351 5.8262C41.7271 5.61743 41.5703 5.43607 41.3773 5.29658C41.1843 5.1571 40.9605 5.06333 40.7236 5.02277C40.4867 4.98221 40.2434 4.99597 40.0129 5.06296L19.4247 11.0633C19.1066 11.1558 18.8276 11.3454 18.6292 11.6041C18.4307 11.8628 18.3235 12.1768 18.3232 12.4994V32.2545C16.9876 31.3511 15.3766 30.9136 13.7525 31.0131C12.1283 31.1126 10.5866 31.7432 9.37839 32.8024C8.17018 33.8616 7.3666 35.2869 7.09848 36.8463C6.83036 38.4056 7.11349 40.0073 7.90176 41.3904C8.69004 42.7736 9.93705 43.8568 11.4398 44.4637C12.9425 45.0706 14.6124 45.1654 16.1777 44.7328C17.743 44.3002 19.1115 43.3656 20.0603 42.0811C21.0091 40.7966 21.4825 39.2379 21.4032 37.6588L21.4115 37.5008V21.6159L38.9115 16.5156V28.2563C37.5759 27.3529 35.9649 26.9154 34.3407 27.0148C32.7165 27.1143 31.1748 27.745 29.9666 28.8042C28.7584 29.8633 27.9548 31.2886 27.6867 32.848C27.4186 34.4074 27.7017 36.0091 28.49 37.3922C29.2783 38.7754 30.5253 39.8586 32.028 40.4655C33.5307 41.0723 35.2007 41.1672 36.7659 40.7346C38.3312 40.302 39.6997 39.3673 40.6485 38.0829C41.5973 36.7984 42.0707 35.2397 41.9915 33.6606L41.9997 33.5006V6.49904Z" fill="#00AAFF"/>
</svg>
