<svg width="50" height="50" viewBox="0 0 50 50" fill="none" xmlns="http://www.w3.org/2000/svg">
<path d="M27.5 17.5V3.75L41.25 17.5M10 0C7.225 0 5 2.225 5 5V45C5 46.3261 5.52678 47.5979 6.46447 48.5355C7.40215 49.4732 8.67392 50 10 50H40C41.3261 50 42.5979 49.4732 43.5355 48.5355C44.4732 47.5979 45 46.3261 45 45V15L30 0H10Z" fill="#878484"/>
<path d="M21.794 36.4336V36.0696C21.794 35.0634 21.8769 34.2615 22.0426 33.6637C22.2143 33.0659 22.4628 32.5865 22.7884 32.2255C23.1139 31.8585 23.5104 31.5241 23.978 31.2223C24.3509 30.9856 24.6823 30.7459 24.9723 30.5032C25.2682 30.2546 25.502 29.9883 25.6737 29.7042C25.8453 29.4201 25.9311 29.0975 25.9311 28.7365C25.9311 28.3873 25.8482 28.0795 25.6825 27.8132C25.5168 27.5469 25.2889 27.3427 24.9989 27.2006C24.7148 27.0527 24.3982 26.9787 24.049 26.9787C23.6998 26.9787 23.3713 27.0586 23.0636 27.2184C22.7617 27.3782 22.5131 27.6061 22.3178 27.902C22.1284 28.192 22.0308 28.5442 22.0249 28.9585H17.9411C17.9588 27.7156 18.2459 26.6976 18.8022 25.9045C19.3645 25.1114 20.1072 24.5254 21.0305 24.1467C21.9538 23.762 22.9718 23.5696 24.0845 23.5696C25.3037 23.5696 26.3868 23.759 27.3338 24.1378C28.2867 24.5166 29.0354 25.0759 29.5799 25.8157C30.1244 26.5555 30.3967 27.4611 30.3967 28.5323C30.3967 29.2366 30.2783 29.8581 30.0415 30.3967C29.8048 30.9353 29.4734 31.4117 29.0472 31.826C28.627 32.2344 28.1328 32.6072 27.5646 32.9446C27.1207 33.205 26.7508 33.4773 26.4549 33.7614C26.1649 34.0455 25.9459 34.371 25.7979 34.7379C25.65 35.099 25.576 35.5429 25.576 36.0696V36.4336H21.794ZM23.756 42.2575C23.1168 42.2575 22.5694 42.0326 22.1136 41.5827C21.6638 41.1329 21.4419 40.5884 21.4478 39.9492C21.4419 39.3219 21.6638 38.7862 22.1136 38.3423C22.5694 37.8925 23.1168 37.6676 23.756 37.6676C24.3656 37.6676 24.9013 37.8925 25.3629 38.3423C25.8246 38.7862 26.0584 39.3219 26.0643 39.9492C26.0584 40.3754 25.9459 40.763 25.7269 41.1122C25.5138 41.4614 25.2327 41.7396 24.8835 41.9467C24.5402 42.1539 24.1644 42.2575 23.756 42.2575Z" fill="white"/>
</svg>
