<svg width="50" height="50" viewBox="0 0 50 50" fill="none" xmlns="http://www.w3.org/2000/svg">
<path fill-rule="evenodd" clip-rule="evenodd" d="M5 0C3.67392 0 2.40215 0.585316 1.46447 1.62718C0.526784 2.66905 0 4.08213 0 5.55556V44.4444C0 45.9179 0.526784 47.3309 1.46447 48.3728C2.40215 49.4147 3.67392 50 5 50H45C46.3261 50 47.5979 49.4147 48.5355 48.3728C49.4732 47.3309 50 45.9179 50 44.4444V5.55556C50 4.08213 49.4732 2.66905 48.5355 1.62718C47.5979 0.585316 46.3261 0 45 0H5ZM16.5625 15.6389C16.618 15.1078 16.7844 14.5985 17.0485 14.1516C17.3126 13.7047 17.667 13.3326 18.0835 13.0649C18.5 12.7972 18.9671 12.6414 19.4474 12.6098C19.9277 12.5783 20.408 12.672 20.85 12.8833C22.11 13.4833 24.77 14.8333 28.14 16.9944C30.5084 18.4984 32.7956 20.155 34.99 21.9556C35.3758 22.2745 35.6892 22.6893 35.9051 23.1668C36.1209 23.6443 36.2334 24.1712 36.2334 24.7056C36.2334 25.2399 36.1209 25.7668 35.9051 26.2443C35.6892 26.7218 35.3758 27.1366 34.99 27.4556C32.7955 29.2542 30.5083 30.9089 28.14 32.4111C25.7843 33.94 23.3501 35.3146 20.85 36.5278C20.4081 36.7397 19.9276 36.8339 19.4471 36.8026C18.9666 36.7714 18.4993 36.6157 18.0827 36.3479C17.666 36.0801 17.3115 35.7077 17.0476 35.2604C16.7836 34.8132 16.6175 34.3035 16.5625 33.7722C16.2625 30.7616 16.1156 27.7346 16.1225 24.7056C16.1225 20.3972 16.4025 17.1528 16.5625 15.6389Z" fill="#F0451A"/>
</svg>
