<svg width="50" height="50" viewBox="0 0 50 50" fill="none" xmlns="http://www.w3.org/2000/svg">
<rect width="50" height="50" rx="5" fill="#FF2828"/>
<path d="M7.99077 32V18.9091H13.3984C14.3786 18.9091 15.2244 19.1009 15.9361 19.4844C16.652 19.8636 17.2038 20.3942 17.5916 21.076C17.9794 21.7536 18.1733 22.5419 18.1733 23.4411C18.1733 24.3445 17.9751 25.1349 17.5788 25.8125C17.1868 26.4858 16.6264 27.0078 15.8977 27.3786C15.169 27.7493 14.304 27.9347 13.3026 27.9347H9.96591V25.4418H12.7145C13.1918 25.4418 13.5902 25.3587 13.9098 25.1925C14.2337 25.0263 14.4787 24.794 14.6449 24.4957C14.8111 24.1932 14.8942 23.8416 14.8942 23.4411C14.8942 23.0362 14.8111 22.6868 14.6449 22.3928C14.4787 22.0945 14.2337 21.8643 13.9098 21.7024C13.5859 21.5405 13.1875 21.4595 12.7145 21.4595H11.1548V32H7.99077ZM24.5717 32H19.733V18.9091H24.5653C25.8991 18.9091 27.0476 19.1712 28.0107 19.6953C28.978 20.2152 29.7237 20.9652 30.2479 21.9453C30.772 22.9212 31.0341 24.0888 31.0341 25.4482C31.0341 26.8118 30.772 27.9837 30.2479 28.9638C29.728 29.9439 28.9844 30.696 28.017 31.2202C27.0497 31.7401 25.9013 32 24.5717 32ZM22.897 29.3026H24.4503C25.1832 29.3026 25.8033 29.179 26.3104 28.9318C26.8217 28.6804 27.2074 28.2734 27.4673 27.7109C27.7315 27.1442 27.8636 26.3899 27.8636 25.4482C27.8636 24.5064 27.7315 23.7564 27.4673 23.1982C27.2031 22.6357 26.8132 22.2308 26.2976 21.9837C25.7862 21.7322 25.1555 21.6065 24.4055 21.6065H22.897V29.3026ZM32.8814 32V18.9091H41.8175V21.4787H36.0455V24.1634H41.2486V26.7393H36.0455V32H32.8814Z" fill="white"/>
</svg>
