<svg width="50" height="50" viewBox="0 0 50 50" fill="none" xmlns="http://www.w3.org/2000/svg">
<rect width="50" height="50" rx="5" fill="#FF5A28"/>
<path d="M7.99077 32V18.9091H13.3984C14.3786 18.9091 15.2244 19.1009 15.9361 19.4844C16.652 19.8636 17.2038 20.3942 17.5916 21.076C17.9794 21.7536 18.1733 22.5419 18.1733 23.4411C18.1733 24.3445 17.9751 25.1349 17.5788 25.8125C17.1868 26.4858 16.6264 27.0078 15.8977 27.3786C15.169 27.7493 14.304 27.9347 13.3026 27.9347H9.96591V25.4418H12.7145C13.1918 25.4418 13.5902 25.3587 13.9098 25.1925C14.2337 25.0263 14.4787 24.794 14.6449 24.4957C14.8111 24.1932 14.8942 23.8416 14.8942 23.4411C14.8942 23.0362 14.8111 22.6868 14.6449 22.3928C14.4787 22.0945 14.2337 21.8643 13.9098 21.7024C13.5859 21.5405 13.1875 21.4595 12.7145 21.4595H11.1548V32H7.99077ZM19.733 32V18.9091H25.1406C26.1207 18.9091 26.9666 19.1009 27.6783 19.4844C28.3942 19.8636 28.946 20.3942 29.3338 21.076C29.7216 21.7536 29.9155 22.5419 29.9155 23.4411C29.9155 24.3445 29.7173 25.1349 29.321 25.8125C28.929 26.4858 28.3686 27.0078 27.6399 27.3786C26.9112 27.7493 26.0462 27.9347 25.0447 27.9347H21.7081V25.4418H24.4567C24.9339 25.4418 25.3324 25.3587 25.652 25.1925C25.9759 25.0263 26.2209 24.794 26.3871 24.4957C26.5533 24.1932 26.6364 23.8416 26.6364 23.4411C26.6364 23.0362 26.5533 22.6868 26.3871 22.3928C26.2209 22.0945 25.9759 21.8643 25.652 21.7024C25.3281 21.5405 24.9297 21.4595 24.4567 21.4595H22.897V32H19.733ZM31.0469 21.4787V18.9091H42.1115V21.4787H38.142V32H35.0227V21.4787H31.0469Z" fill="white"/>
</svg>
